<svg width="126" height="101" viewBox="0 0 126 101" fill="none" xmlns="http://www.w3.org/2000/svg">
<path d="M13.9849 13.1498C13.7479 6.33478 19.0569 0.0507812 26.2339 0.0507812H99.7739C106.951 0.0507812 112.26 6.33478 112.023 13.1498C111.795 19.6958 112.091 28.1758 114.225 35.0898C116.366 42.0258 119.976 46.4088 125.889 46.9728V53.3598C119.976 53.9228 116.366 58.3068 114.225 65.2428C112.091 72.1568 111.795 80.6368 112.023 87.1828C112.26 93.9978 106.951 100.281 99.7739 100.281H26.2339C19.0569 100.281 13.7479 93.9968 13.9849 87.1828C14.2129 80.6368 13.9169 72.1568 11.7819 65.2428C9.64189 58.3078 6.02189 53.9238 0.108887 53.3598V46.9728C6.02189 46.4098 9.64189 42.0258 11.7819 35.0898C13.9169 28.1758 14.2119 19.6958 13.9849 13.1498Z" fill="url(#paint0_linear_102_9)"/>
<g filter="url(#filter0_d_102_9)">
<path d="M66.1097 77.1744C77.7286 77.1744 84.7302 71.4854 84.7302 62.102C84.7302 55.009 79.7344 49.874 72.3165 49.0611V48.7656C77.7665 47.879 82.0432 42.8179 82.0432 37.1658C82.0432 29.1123 75.685 23.8662 65.9962 23.8662H44.1963V77.1744H66.1097ZM52.674 30.6268H63.9525C70.0837 30.6268 73.5654 33.3605 73.5654 38.3108C73.5654 43.5937 69.516 46.549 62.1737 46.549H52.674V30.6268ZM52.674 70.4139V52.8661H63.8766C71.9001 52.8661 76.0633 55.8214 76.0633 61.5846C76.0633 67.3475 72.0138 70.4139 64.3687 70.4139H52.674Z" fill="url(#paint1_linear_102_9)"/>
<path d="M66.1097 77.1744C77.7286 77.1744 84.7302 71.4854 84.7302 62.102C84.7302 55.009 79.7344 49.874 72.3165 49.0611V48.7656C77.7665 47.879 82.0432 42.8179 82.0432 37.1658C82.0432 29.1123 75.685 23.8662 65.9962 23.8662H44.1963V77.1744H66.1097ZM52.674 30.6268H63.9525C70.0837 30.6268 73.5654 33.3605 73.5654 38.3108C73.5654 43.5937 69.516 46.549 62.1737 46.549H52.674V30.6268ZM52.674 70.4139V52.8661H63.8766C71.9001 52.8661 76.0633 55.8214 76.0633 61.5846C76.0633 67.3475 72.0138 70.4139 64.3687 70.4139H52.674Z" stroke="white" stroke-width="0.24566"/>
</g>
<defs>
<filter id="filter0_d_102_9" x="40.1427" y="20.7952" width="48.6409" height="61.4148" filterUnits="userSpaceOnUse" color-interpolation-filters="sRGB">
<feFlood flood-opacity="0" result="BackgroundImageFix"/>
<feColorMatrix in="SourceAlpha" type="matrix" values="0 0 0 0 0 0 0 0 0 0 0 0 0 0 0 0 0 0 127 0" result="hardAlpha"/>
<feOffset dy="0.98264"/>
<feGaussianBlur stdDeviation="1.96528"/>
<feColorMatrix type="matrix" values="0 0 0 0 0 0 0 0 0 0 0 0 0 0 0 0 0 0 0.15 0"/>
<feBlend mode="normal" in2="BackgroundImageFix" result="effect1_dropShadow_102_9"/>
<feBlend mode="normal" in="SourceGraphic" in2="effect1_dropShadow_102_9" result="shape"/>
</filter>
<linearGradient id="paint0_linear_102_9" x1="18.7995" y1="2.70342" x2="128.708" y2="89.9501" gradientUnits="userSpaceOnUse">
<stop stop-color="#9013FE"/>
<stop offset="1" stop-color="#6610F2"/>
</linearGradient>
<linearGradient id="paint1_linear_102_9" x1="48.0315" y1="27.3742" x2="72.5975" y2="68.9227" gradientUnits="userSpaceOnUse">
<stop stop-color="white"/>
<stop offset="1" stop-color="#F1E5FC"/>
</linearGradient>
</defs>
</svg>
