<svg width="125" height="125" viewBox="0 0 125 125" fill="none" xmlns="http://www.w3.org/2000/svg">
<circle cx="62.5" cy="62.5" r="62.5" fill="#2E2E2E"/>
<path d="M21.108 70.2273C20.0568 70.2273 19.1501 69.9953 18.3878 69.5312C17.6302 69.0625 17.0455 68.4091 16.6335 67.571C16.2263 66.7282 16.0227 65.7481 16.0227 64.6307C16.0227 63.5133 16.2263 62.5284 16.6335 61.6761C17.0455 60.8191 17.6184 60.1515 18.3523 59.6733C19.0909 59.1903 19.9527 58.9489 20.9375 58.9489C21.5057 58.9489 22.0668 59.0436 22.6207 59.233C23.1747 59.4223 23.679 59.7301 24.1335 60.1562C24.5881 60.5777 24.9503 61.1364 25.2202 61.8324C25.4901 62.5284 25.625 63.3854 25.625 64.4034V65.1136H17.2159V63.6648H23.9205C23.9205 63.0492 23.7973 62.5 23.5511 62.017C23.3097 61.5341 22.964 61.1529 22.5142 60.8736C22.0691 60.5942 21.5436 60.4545 20.9375 60.4545C20.2699 60.4545 19.6922 60.6203 19.2045 60.9517C18.7216 61.2784 18.3499 61.7045 18.0895 62.2301C17.8291 62.7557 17.6989 63.3191 17.6989 63.9205V64.8864C17.6989 65.7102 17.8409 66.4086 18.125 66.9815C18.4138 67.5497 18.8139 67.983 19.3253 68.2812C19.8366 68.5748 20.4309 68.7216 21.108 68.7216C21.5483 68.7216 21.946 68.66 22.3011 68.5369C22.661 68.4091 22.9711 68.2197 23.2315 67.9688C23.492 67.7131 23.6932 67.3958 23.8352 67.017L25.4545 67.4716C25.2841 68.0208 24.9976 68.5038 24.5952 68.9205C24.1927 69.3324 23.6955 69.6544 23.1037 69.8864C22.5118 70.1136 21.8466 70.2273 21.108 70.2273ZM29.1317 59.0909L31.7454 63.5511L34.359 59.0909H36.2908L32.7681 64.5455L36.2908 70H34.359L31.7454 65.767L29.1317 70H27.1999L30.6658 64.5455L27.1999 59.0909H29.1317ZM38.6825 74.0909V59.0909H40.3018V60.8239H40.5007C40.6238 60.6345 40.7943 60.393 41.0121 60.0994C41.2346 59.8011 41.5518 59.536 41.9638 59.304C42.3804 59.0672 42.9439 58.9489 43.6541 58.9489C44.5727 58.9489 45.3823 59.1785 46.0831 59.6378C46.7839 60.0971 47.3307 60.7481 47.7237 61.5909C48.1167 62.4337 48.3132 63.428 48.3132 64.5739C48.3132 65.7292 48.1167 66.7306 47.7237 67.5781C47.3307 68.4209 46.7862 69.0743 46.0902 69.5384C45.3942 69.9976 44.5916 70.2273 43.6825 70.2273C42.9818 70.2273 42.4207 70.1113 41.9993 69.8793C41.5779 69.6425 41.2536 69.375 41.0263 69.0767C40.799 68.7737 40.6238 68.5227 40.5007 68.3239H40.3587V74.0909H38.6825ZM40.3303 64.5455C40.3303 65.3693 40.451 66.0961 40.6925 66.7259C40.9339 67.3509 41.2867 67.8409 41.7507 68.196C42.2147 68.5464 42.7829 68.7216 43.4553 68.7216C44.156 68.7216 44.7408 68.5369 45.2095 68.1676C45.683 67.7936 46.0381 67.2917 46.2749 66.6619C46.5163 66.0275 46.6371 65.322 46.6371 64.5455C46.6371 63.7784 46.5187 63.0871 46.282 62.4716C46.05 61.8513 45.6972 61.3613 45.2237 61.0014C44.755 60.6368 44.1655 60.4545 43.4553 60.4545C42.7734 60.4545 42.2005 60.6274 41.7365 60.973C41.2725 61.3139 40.9221 61.7921 40.6854 62.4077C40.4486 63.0185 40.3303 63.7311 40.3303 64.5455ZM50.87 70V59.0909H52.4893V60.7386H52.603C52.8018 60.1989 53.1617 59.7609 53.6825 59.4247C54.2034 59.0885 54.7905 58.9205 55.4439 58.9205C55.567 58.9205 55.7209 58.9228 55.9055 58.9276C56.0902 58.9323 56.2299 58.9394 56.3246 58.9489V60.6534C56.2678 60.6392 56.1375 60.6179 55.9339 60.5895C55.7351 60.5563 55.5244 60.5398 55.3018 60.5398C54.7715 60.5398 54.2981 60.651 53.8814 60.8736C53.4695 61.0914 53.1428 61.3944 52.9013 61.7827C52.6645 62.1662 52.5462 62.6042 52.5462 63.0966V70H50.87ZM62.5533 70.2273C61.5021 70.2273 60.5954 69.9953 59.8331 69.5312C59.0755 69.0625 58.4908 68.4091 58.0788 67.571C57.6716 66.7282 57.468 65.7481 57.468 64.6307C57.468 63.5133 57.6716 62.5284 58.0788 61.6761C58.4908 60.8191 59.0637 60.1515 59.7976 59.6733C60.5362 59.1903 61.398 58.9489 62.3828 58.9489C62.951 58.9489 63.5121 59.0436 64.0661 59.233C64.62 59.4223 65.1243 59.7301 65.5788 60.1562C66.0334 60.5777 66.3956 61.1364 66.6655 61.8324C66.9354 62.5284 67.0703 63.3854 67.0703 64.4034V65.1136H58.6612V63.6648H65.3658C65.3658 63.0492 65.2427 62.5 64.9964 62.017C64.755 61.5341 64.4093 61.1529 63.9595 60.8736C63.5144 60.5942 62.9889 60.4545 62.3828 60.4545C61.7152 60.4545 61.1375 60.6203 60.6499 60.9517C60.1669 61.2784 59.7952 61.7045 59.5348 62.2301C59.2744 62.7557 59.1442 63.3191 59.1442 63.9205V64.8864C59.1442 65.7102 59.2862 66.4086 59.5703 66.9815C59.8591 67.5497 60.2592 67.983 60.7706 68.2812C61.282 68.5748 61.8762 68.7216 62.5533 68.7216C62.9936 68.7216 63.3913 68.66 63.7464 68.5369C64.1063 68.4091 64.4164 68.2197 64.6768 67.9688C64.9373 67.7131 65.1385 67.3958 65.2805 67.017L66.8999 67.4716C66.7294 68.0208 66.4429 68.5038 66.0405 68.9205C65.638 69.3324 65.1409 69.6544 64.549 69.8864C63.9571 70.1136 63.2919 70.2273 62.5533 70.2273ZM77.3473 61.5341L75.8416 61.9602C75.7469 61.7093 75.6072 61.4654 75.4226 61.2287C75.2427 60.9872 74.9964 60.7884 74.6839 60.6321C74.3714 60.4759 73.9714 60.3977 73.4837 60.3977C72.8161 60.3977 72.2597 60.5516 71.8146 60.8594C71.3743 61.1624 71.1541 61.5483 71.1541 62.017C71.1541 62.4337 71.3056 62.7628 71.6087 63.0043C71.9117 63.2457 72.3852 63.447 73.0291 63.608L74.6484 64.0057C75.6238 64.2424 76.3506 64.6046 76.8288 65.0923C77.3071 65.5753 77.5462 66.1979 77.5462 66.9602C77.5462 67.5852 77.3662 68.1439 77.0064 68.6364C76.6513 69.1288 76.1541 69.517 75.5149 69.8011C74.8757 70.0852 74.1323 70.2273 73.2848 70.2273C72.1721 70.2273 71.2512 69.9858 70.522 69.5028C69.7929 69.0199 69.3312 68.3144 69.1371 67.3864L70.728 66.9886C70.8795 67.5758 71.166 68.0161 71.5874 68.3097C72.0135 68.6032 72.5698 68.75 73.2564 68.75C74.0376 68.75 74.6579 68.5843 75.1172 68.2528C75.5812 67.9167 75.8132 67.5142 75.8132 67.0455C75.8132 66.6667 75.6806 66.3494 75.4155 66.0938C75.1503 65.8333 74.7431 65.6392 74.1939 65.5114L72.3757 65.0852C71.3767 64.8485 70.6428 64.4815 70.174 63.9844C69.71 63.4825 69.478 62.8551 69.478 62.1023C69.478 61.4867 69.6508 60.9422 69.9964 60.4688C70.3468 59.9953 70.8227 59.6236 71.424 59.3537C72.0301 59.0838 72.7166 58.9489 73.4837 58.9489C74.5632 58.9489 75.4107 59.1856 76.0263 59.6591C76.6465 60.1326 77.0869 60.7576 77.3473 61.5341ZM87.7965 61.5341L86.2908 61.9602C86.1961 61.7093 86.0565 61.4654 85.8718 61.2287C85.6919 60.9872 85.4457 60.7884 85.1332 60.6321C84.8207 60.4759 84.4206 60.3977 83.9329 60.3977C83.2653 60.3977 82.7089 60.5516 82.2638 60.8594C81.8235 61.1624 81.6033 61.5483 81.6033 62.017C81.6033 62.4337 81.7549 62.7628 82.0579 63.0043C82.3609 63.2457 82.8344 63.447 83.4783 63.608L85.0977 64.0057C86.073 64.2424 86.7998 64.6046 87.2781 65.0923C87.7563 65.5753 87.9954 66.1979 87.9954 66.9602C87.9954 67.5852 87.8155 68.1439 87.4556 68.6364C87.1005 69.1288 86.6033 69.517 85.9641 69.8011C85.3249 70.0852 84.5816 70.2273 83.734 70.2273C82.6213 70.2273 81.7004 69.9858 80.9712 69.5028C80.2421 69.0199 79.7804 68.3144 79.5863 67.3864L81.1772 66.9886C81.3287 67.5758 81.6152 68.0161 82.0366 68.3097C82.4627 68.6032 83.0191 68.75 83.7056 68.75C84.4869 68.75 85.1071 68.5843 85.5664 68.2528C86.0304 67.9167 86.2624 67.5142 86.2624 67.0455C86.2624 66.6667 86.1299 66.3494 85.8647 66.0938C85.5996 65.8333 85.1924 65.6392 84.6431 65.5114L82.8249 65.0852C81.8259 64.8485 81.092 64.4815 80.6232 63.9844C80.1592 63.4825 79.9272 62.8551 79.9272 62.1023C79.9272 61.4867 80.1 60.9422 80.4457 60.4688C80.796 59.9953 81.2719 59.6236 81.8732 59.3537C82.4793 59.0838 83.1658 58.9489 83.9329 58.9489C85.0124 58.9489 85.86 59.1856 86.4755 59.6591C87.0958 60.1326 87.5361 60.7576 87.7965 61.5341ZM96.1435 59.0909H97.8196V70.7955C97.8196 71.4678 97.7036 72.0502 97.4716 72.5426C97.2443 73.035 96.8987 73.4162 96.4347 73.6861C95.9754 73.956 95.3954 74.0909 94.6946 74.0909C94.6378 74.0909 94.581 74.0909 94.5241 74.0909C94.4673 74.0909 94.4105 74.0909 94.3537 74.0909V72.5284C94.4105 72.5284 94.4626 72.5284 94.5099 72.5284C94.5573 72.5284 94.6094 72.5284 94.6662 72.5284C95.1776 72.5284 95.5516 72.3769 95.7884 72.0739C96.0251 71.7756 96.1435 71.3494 96.1435 70.7955V59.0909ZM96.9673 57.2727C96.6406 57.2727 96.3589 57.1615 96.1222 56.9389C95.8902 56.7164 95.7741 56.4489 95.7741 56.1364C95.7741 55.8239 95.8902 55.5563 96.1222 55.3338C96.3589 55.1113 96.6406 55 96.9673 55C97.294 55 97.5734 55.1113 97.8054 55.3338C98.0421 55.5563 98.1605 55.8239 98.1605 56.1364C98.1605 56.4489 98.0421 56.7164 97.8054 56.9389C97.5734 57.1615 97.294 57.2727 96.9673 57.2727ZM108.617 61.5341L107.111 61.9602C107.016 61.7093 106.877 61.4654 106.692 61.2287C106.512 60.9872 106.266 60.7884 105.953 60.6321C105.641 60.4759 105.241 60.3977 104.753 60.3977C104.086 60.3977 103.529 60.5516 103.084 60.8594C102.644 61.1624 102.424 61.5483 102.424 62.017C102.424 62.4337 102.575 62.7628 102.878 63.0043C103.181 63.2457 103.655 63.447 104.299 63.608L105.918 64.0057C106.893 64.2424 107.62 64.6046 108.098 65.0923C108.577 65.5753 108.816 66.1979 108.816 66.9602C108.816 67.5852 108.636 68.1439 108.276 68.6364C107.921 69.1288 107.424 69.517 106.784 69.8011C106.145 70.0852 105.402 70.2273 104.554 70.2273C103.442 70.2273 102.521 69.9858 101.792 69.5028C101.062 69.0199 100.601 68.3144 100.407 67.3864L101.998 66.9886C102.149 67.5758 102.435 68.0161 102.857 68.3097C103.283 68.6032 103.839 68.75 104.526 68.75C105.307 68.75 105.927 68.5843 106.387 68.2528C106.851 67.9167 107.083 67.5142 107.083 67.0455C107.083 66.6667 106.95 66.3494 106.685 66.0938C106.42 65.8333 106.013 65.6392 105.463 65.5114L103.645 65.0852C102.646 64.8485 101.912 64.4815 101.444 63.9844C100.98 63.4825 100.748 62.8551 100.748 62.1023C100.748 61.4867 100.92 60.9422 101.266 60.4688C101.616 59.9953 102.092 59.6236 102.694 59.3537C103.3 59.0838 103.986 58.9489 104.753 58.9489C105.833 58.9489 106.68 59.1856 107.296 59.6591C107.916 60.1326 108.356 60.7576 108.617 61.5341Z" fill="white"/>
</svg>
